<svg width="773" height="176" viewBox="0 0 773 176" fill="none" xmlns="http://www.w3.org/2000/svg">
<path d="M3.536 56V19.288H11.7V56H3.536ZM34.7344 56V41.596C34.7344 40.2787 34.3184 39.2213 33.4864 38.424C32.689 37.592 31.6664 37.176 30.4184 37.176C29.5517 37.176 28.789 37.3667 28.1304 37.748C27.4717 38.0947 26.9517 38.6147 26.5704 39.308C26.189 39.9667 25.9984 40.7293 25.9984 41.596L22.9304 40.088C22.9304 38.112 23.3637 36.3787 24.2304 34.888C25.097 33.3973 26.293 32.2533 27.8184 31.456C29.3784 30.624 31.129 30.208 33.0704 30.208C34.9424 30.208 36.589 30.6587 38.0104 31.56C39.4664 32.4267 40.6104 33.588 41.4424 35.044C42.2744 36.5 42.6904 38.0947 42.6904 39.828V56H34.7344ZM18.0424 56V30.728H25.9984V56H18.0424ZM51.0835 56V20.276H59.0395V56H51.0835ZM45.3635 37.488V30.728H64.7595V37.488H45.3635ZM68.265 56V30.728H76.221V56H68.265ZM76.221 42.116L72.893 39.516C73.5517 36.5693 74.661 34.2813 76.221 32.652C77.781 31.0227 79.9477 30.208 82.721 30.208C83.9344 30.208 84.9917 30.3987 85.893 30.78C86.829 31.1267 87.6437 31.6813 88.337 32.444L83.605 38.424C83.2584 38.0427 82.825 37.748 82.305 37.54C81.785 37.332 81.1957 37.228 80.537 37.228C79.2197 37.228 78.1624 37.644 77.365 38.476C76.6024 39.2733 76.221 40.4867 76.221 42.116ZM101.914 56.572C99.3135 56.572 96.9562 56 94.8415 54.856C92.7615 53.6773 91.1148 52.0827 89.9015 50.072C88.6882 48.0613 88.0815 45.808 88.0815 43.312C88.0815 40.816 88.6882 38.58 89.9015 36.604C91.1148 34.628 92.7615 33.068 94.8415 31.924C96.9215 30.7453 99.2788 30.156 101.914 30.156C104.548 30.156 106.906 30.728 108.986 31.872C111.066 33.016 112.712 34.5933 113.926 36.604C115.139 38.58 115.746 40.816 115.746 43.312C115.746 45.808 115.139 48.0613 113.926 50.072C112.712 52.0827 111.066 53.6773 108.986 54.856C106.906 56 104.548 56.572 101.914 56.572ZM101.914 49.344C103.058 49.344 104.063 49.1013 104.93 48.616C105.796 48.096 106.455 47.3853 106.906 46.484C107.391 45.548 107.634 44.4907 107.634 43.312C107.634 42.1333 107.391 41.1107 106.906 40.244C106.42 39.3427 105.744 38.6493 104.878 38.164C104.046 37.644 103.058 37.384 101.914 37.384C100.804 37.384 99.8162 37.644 98.9495 38.164C98.0828 38.6493 97.4068 39.3427 96.9215 40.244C96.4362 41.1453 96.1935 42.1853 96.1935 43.364C96.1935 44.508 96.4362 45.548 96.9215 46.484C97.4068 47.3853 98.0828 48.096 98.9495 48.616C99.8162 49.1013 100.804 49.344 101.914 49.344ZM130.47 56.52C128.078 56.52 125.946 55.948 124.074 54.804C122.237 53.66 120.781 52.1 119.706 50.124C118.666 48.148 118.146 45.8947 118.146 43.364C118.146 40.8333 118.666 38.58 119.706 36.604C120.781 34.628 122.237 33.068 124.074 31.924C125.946 30.78 128.078 30.208 130.47 30.208C132.204 30.208 133.764 30.5373 135.15 31.196C136.572 31.8547 137.733 32.7733 138.634 33.952C139.57 35.096 140.09 36.4133 140.194 37.904V48.564C140.09 50.0547 139.588 51.4067 138.686 52.62C137.785 53.7987 136.624 54.752 135.202 55.48C133.781 56.1733 132.204 56.52 130.47 56.52ZM131.874 49.344C133.018 49.344 134.006 49.1013 134.838 48.616C135.67 48.096 136.329 47.3853 136.814 46.484C137.3 45.5827 137.542 44.5427 137.542 43.364C137.542 42.1853 137.3 41.1627 136.814 40.296C136.364 39.3947 135.705 38.684 134.838 38.164C134.006 37.644 133.036 37.384 131.926 37.384C130.817 37.384 129.829 37.644 128.962 38.164C128.13 38.684 127.454 39.3947 126.934 40.296C126.449 41.1973 126.206 42.22 126.206 43.364C126.206 44.508 126.449 45.5307 126.934 46.432C127.42 47.3333 128.096 48.044 128.962 48.564C129.829 49.084 130.8 49.344 131.874 49.344ZM145.03 56H137.23V49.188L138.426 43.052L137.074 36.916V18.248H145.03V56ZM161.864 56.572C159.542 56.572 157.479 56.104 155.676 55.168C153.908 54.1973 152.522 52.88 151.516 51.216C150.511 49.5173 150.008 47.576 150.008 45.392V30.728H157.964V45.288C157.964 46.1547 158.103 46.9 158.38 47.524C158.692 48.148 159.143 48.6333 159.732 48.98C160.322 49.3267 161.032 49.5 161.864 49.5C163.043 49.5 163.979 49.136 164.672 48.408C165.366 47.6453 165.712 46.6053 165.712 45.288V30.728H173.668V45.34C173.668 47.5587 173.166 49.5173 172.16 51.216C171.155 52.88 169.768 54.1973 168 55.168C166.232 56.104 164.187 56.572 161.864 56.572ZM190.883 56.572C188.283 56.572 185.926 56 183.811 54.856C181.697 53.712 180.033 52.1347 178.819 50.124C177.606 48.1133 176.999 45.86 176.999 43.364C176.999 40.8333 177.606 38.58 178.819 36.604C180.067 34.5933 181.749 33.016 183.863 31.872C185.978 30.728 188.353 30.156 190.987 30.156C192.963 30.156 194.766 30.5027 196.395 31.196C198.059 31.8547 199.533 32.86 200.815 34.212L195.719 39.308C195.13 38.6493 194.437 38.164 193.639 37.852C192.877 37.54 191.993 37.384 190.987 37.384C189.843 37.384 188.821 37.644 187.919 38.164C187.053 38.6493 186.359 39.3427 185.839 40.244C185.354 41.1107 185.111 42.1333 185.111 43.312C185.111 44.4907 185.354 45.5307 185.839 46.432C186.359 47.3333 187.07 48.044 187.971 48.564C188.873 49.084 189.878 49.344 190.987 49.344C192.027 49.344 192.946 49.1707 193.743 48.824C194.575 48.4427 195.286 47.9227 195.875 47.264L200.919 52.36C199.602 53.7467 198.111 54.804 196.447 55.532C194.783 56.2253 192.929 56.572 190.883 56.572ZM204.46 56V30.728H212.416V56H204.46ZM208.464 27.244C207.216 27.244 206.176 26.828 205.344 25.996C204.547 25.1293 204.148 24.0893 204.148 22.876C204.148 21.628 204.547 20.588 205.344 19.756C206.176 18.924 207.216 18.508 208.464 18.508C209.712 18.508 210.735 18.924 211.532 19.756C212.33 20.588 212.728 21.628 212.728 22.876C212.728 24.0893 212.33 25.1293 211.532 25.996C210.735 26.828 209.712 27.244 208.464 27.244ZM234.711 56V41.596C234.711 40.2787 234.295 39.2213 233.463 38.424C232.666 37.592 231.643 37.176 230.395 37.176C229.528 37.176 228.766 37.3667 228.107 37.748C227.448 38.0947 226.928 38.6147 226.547 39.308C226.166 39.9667 225.975 40.7293 225.975 41.596L222.907 40.088C222.907 38.112 223.34 36.3787 224.207 34.888C225.074 33.3973 226.27 32.2533 227.795 31.456C229.355 30.624 231.106 30.208 233.047 30.208C234.919 30.208 236.566 30.6587 237.987 31.56C239.443 32.4267 240.587 33.588 241.419 35.044C242.251 36.5 242.667 38.0947 242.667 39.828V56H234.711ZM218.019 56V30.728H225.975V56H218.019ZM258.489 67.336C255.715 67.336 253.271 66.8507 251.157 65.88C249.077 64.944 247.43 63.6093 246.217 61.876L251.105 56.988C252.006 58.0627 253.011 58.8773 254.121 59.432C255.265 59.9867 256.634 60.264 258.229 60.264C260.205 60.264 261.747 59.7787 262.857 58.808C264.001 57.8373 264.573 56.468 264.573 54.7V48.252L265.925 42.74L264.729 37.228V30.728H272.529V54.492C272.529 57.092 271.922 59.3453 270.709 61.252C269.495 63.1587 267.831 64.6493 265.717 65.724C263.602 66.7987 261.193 67.336 258.489 67.336ZM258.125 55.22C255.802 55.22 253.739 54.6653 251.937 53.556C250.134 52.4467 248.713 50.9387 247.673 49.032C246.633 47.1253 246.113 45.0107 246.113 42.688C246.113 40.3307 246.633 38.216 247.673 36.344C248.713 34.4373 250.134 32.9467 251.937 31.872C253.739 30.7627 255.802 30.208 258.125 30.208C259.858 30.208 261.401 30.5373 262.753 31.196C264.139 31.82 265.249 32.7213 266.081 33.9C266.947 35.044 267.433 36.3787 267.537 37.904V47.524C267.433 49.0147 266.947 50.3493 266.081 51.528C265.249 52.672 264.139 53.5733 262.753 54.232C261.366 54.8907 259.823 55.22 258.125 55.22ZM259.633 48.148C260.742 48.148 261.695 47.9053 262.493 47.42C263.325 46.9347 263.949 46.2933 264.365 45.496C264.815 44.664 265.041 43.728 265.041 42.688C265.041 41.648 264.815 40.712 264.365 39.88C263.949 39.048 263.325 38.3893 262.493 37.904C261.695 37.4187 260.742 37.176 259.633 37.176C258.558 37.176 257.605 37.4187 256.773 37.904C255.941 38.3893 255.299 39.048 254.849 39.88C254.398 40.712 254.173 41.648 254.173 42.688C254.173 43.6587 254.398 44.5773 254.849 45.444C255.299 46.276 255.923 46.9347 256.721 47.42C257.553 47.9053 258.523 48.148 259.633 48.148Z" fill="url(#paint0_linear_134_6465)"/>
<path d="M83.153 120.74C83.153 130.213 80.8663 138.021 76.293 144.162C71.7523 150.303 64.9903 154.207 56.007 155.873C63.651 157.637 72.4383 159.074 82.369 160.185L79.87 173.17C60.7273 170.655 45.668 167.012 34.692 162.243C23.716 157.506 16.0067 151.806 11.564 145.142C7.12133 138.445 4.9 130.54 4.9 121.426C4.9 113.357 6.48433 106.481 9.653 100.797C12.8217 95.113 17.3297 90.8173 23.177 87.91C29.057 85.0027 35.9987 83.549 44.002 83.549C52.0053 83.549 58.947 85.0027 64.827 87.91C70.707 90.7847 75.2313 95.015 78.4 100.601C81.5687 106.154 83.153 112.867 83.153 120.74ZM22.589 120.397C22.589 136.338 29.7267 144.309 44.002 144.309C50.8293 144.309 56.105 142.365 59.829 138.478C63.553 134.591 65.415 128.792 65.415 121.083C65.415 113.08 63.5367 107.102 59.78 103.149C56.056 99.1637 50.7967 97.171 44.002 97.171C37.24 97.171 31.9807 99.1147 28.224 103.002C24.4673 106.857 22.589 112.655 22.589 120.397ZM150.62 84.48H171.592V157H155.324V105.991L135.626 146.514H121.024L101.326 107.412V157H85.1069V84.48H106.03L128.57 130.148L150.62 84.48ZM249.05 157.931C240.655 157.931 232.896 156.82 225.775 154.599V140.977C229.074 142.088 232.896 142.97 237.241 143.623C241.586 144.244 245.571 144.554 249.197 144.554C254.456 144.554 258.213 143.852 260.467 142.447C262.721 141.042 263.848 138.968 263.848 136.224C263.848 134.689 263.505 133.431 262.819 132.451C262.133 131.471 260.973 130.638 259.34 129.952C257.707 129.266 255.42 128.645 252.48 128.09L246.502 126.914C238.629 125.379 232.913 122.912 229.352 119.515C225.824 116.085 224.06 111.512 224.06 105.795C224.06 98.641 226.853 93.153 232.439 89.331C238.058 85.4763 246.371 83.549 257.38 83.549C264.665 83.549 271.231 84.333 277.078 85.901V99.572C274.432 98.7553 271.394 98.1183 267.964 97.661C264.567 97.171 261.169 96.926 257.772 96.926C251.827 96.926 247.564 97.6447 244.983 99.082C242.435 100.487 241.161 102.528 241.161 105.207C241.161 106.644 241.455 107.853 242.043 108.833C242.631 109.78 243.627 110.581 245.032 111.234C246.469 111.887 248.462 112.475 251.01 112.998L257.037 114.174C262.786 115.285 267.409 116.804 270.904 118.731C274.432 120.626 276.98 122.945 278.548 125.689C280.149 128.4 280.949 131.618 280.949 135.342C280.949 140.013 279.675 144.048 277.127 147.445C274.579 150.842 270.904 153.439 266.102 155.236C261.333 157.033 255.649 157.931 249.05 157.931ZM317.824 157.931C309.853 157.931 302.928 156.494 297.048 153.619C291.168 150.712 286.644 146.481 283.475 140.928C280.306 135.342 278.722 128.613 278.722 120.74C278.722 112.867 280.306 106.154 283.475 100.601C286.644 95.015 291.168 90.7847 297.048 87.91C302.928 85.0027 309.853 83.549 317.824 83.549C325.827 83.549 332.769 85.0027 338.649 87.91C344.529 90.8173 349.053 95.064 352.222 100.65C355.391 106.203 356.975 112.9 356.975 120.74C356.975 128.58 355.374 135.293 352.173 140.879C349.004 146.432 344.48 150.663 338.6 153.57C332.72 156.477 325.795 157.931 317.824 157.931ZM317.824 144.309C324.651 144.309 329.927 142.365 333.651 138.478C337.375 134.591 339.237 128.792 339.237 121.083C339.237 113.08 337.359 107.102 333.602 103.149C329.878 99.1637 324.619 97.171 317.824 97.171C311.062 97.171 305.803 99.1147 302.046 103.002C298.289 106.857 296.411 112.655 296.411 120.397C296.411 128.498 298.257 134.509 301.948 138.429C305.639 142.349 310.931 144.309 317.824 144.309ZM358.733 157V84.48H376.079V143.378H414.201V157H358.733ZM443.879 157.931C431.988 157.931 423.282 155.154 417.762 149.601C412.274 144.048 409.53 135.799 409.53 124.856V84.48H426.876V126.326C426.876 132.435 428.264 136.926 431.041 139.801C433.85 142.643 438.129 144.064 443.879 144.064C449.628 144.064 453.891 142.643 456.668 139.801C459.444 136.926 460.833 132.435 460.833 126.326V84.48H477.885V124.856C477.885 135.799 475.141 144.048 469.653 149.601C464.165 155.154 455.573 157.931 443.879 157.931ZM501.177 157V98.102H475.452V84.48H544.248V98.102H518.523V157H501.177ZM542.108 157V84.48H559.454V157H542.108ZM600.32 157.931C592.35 157.931 585.424 156.494 579.544 153.619C573.664 150.712 569.14 146.481 565.971 140.928C562.803 135.342 561.218 128.613 561.218 120.74C561.218 112.867 562.803 106.154 565.971 100.601C569.14 95.015 573.664 90.7847 579.544 87.91C585.424 85.0027 592.35 83.549 600.32 83.549C608.324 83.549 615.265 85.0027 621.145 87.91C627.025 90.8173 631.55 95.064 634.718 100.65C637.887 106.203 639.471 112.9 639.471 120.74C639.471 128.58 637.871 135.293 634.669 140.879C631.501 146.432 626.976 150.663 621.096 153.57C615.216 156.477 608.291 157.931 600.32 157.931ZM600.32 144.309C607.148 144.309 612.423 142.365 616.147 138.478C619.871 134.591 621.733 128.792 621.733 121.083C621.733 113.08 619.855 107.102 616.098 103.149C612.374 99.1637 607.115 97.171 600.32 97.171C593.558 97.171 588.299 99.1147 584.542 103.002C580.786 106.857 578.907 112.655 578.907 120.397C578.907 128.498 580.753 134.509 584.444 138.429C588.136 142.349 593.428 144.309 600.32 144.309ZM695.08 84.48H711.446V157H694.002L657.595 108.147V157H641.229V84.48H658.673L695.08 133.333V84.48ZM736.933 157.931C728.538 157.931 720.78 156.82 713.658 154.599V140.977C716.958 142.088 720.78 142.97 725.124 143.623C729.469 144.244 733.454 144.554 737.08 144.554C742.34 144.554 746.096 143.852 748.35 142.447C750.604 141.042 751.731 138.968 751.731 136.224C751.731 134.689 751.388 133.431 750.702 132.451C750.016 131.471 748.857 130.638 747.223 129.952C745.59 129.266 743.303 128.645 740.363 128.09L734.385 126.914C726.513 125.379 720.796 122.912 717.235 119.515C713.707 116.085 711.943 111.512 711.943 105.795C711.943 98.641 714.736 93.153 720.322 89.331C725.941 85.4763 734.255 83.549 745.263 83.549C752.548 83.549 759.114 84.333 764.961 85.901V99.572C762.315 98.7553 759.277 98.1183 755.847 97.661C752.45 97.171 749.053 96.926 745.655 96.926C739.71 96.926 735.447 97.6447 732.866 99.082C730.318 100.487 729.044 102.528 729.044 105.207C729.044 106.644 729.338 107.853 729.926 108.833C730.514 109.78 731.511 110.581 732.915 111.234C734.353 111.887 736.345 112.475 738.893 112.998L744.92 114.174C750.67 115.285 755.292 116.804 758.787 118.731C762.315 120.626 764.863 122.945 766.431 125.689C768.032 128.4 768.832 131.618 768.832 135.342C768.832 140.013 767.558 144.048 765.01 147.445C762.462 150.842 758.787 153.439 753.985 155.236C749.216 157.033 743.532 157.931 736.933 157.931Z" fill="url(#paint1_linear_134_6465)"/>
<path d="M187.008 98.5273V84.4453H190.758L194.527 95.2852L198.395 84.4453H202.047V98.5273H199.488V90.3633C199.488 90.1419 199.501 89.7188 199.527 89.0938C199.566 88.4688 199.592 88 199.605 87.6875H199.449L195.406 98.5273H193.277L189.449 87.6875H189.273C189.299 88.1042 189.326 88.5794 189.352 89.1133C189.378 89.6471 189.391 89.9987 189.391 90.168V98.5273H187.008ZM178.727 98.5273V86.5938H174.684V84.4453H185.328V86.5938H181.246V98.5273H178.727Z" fill="url(#paint2_linear_134_6465)"/>
<defs>
<linearGradient id="paint0_linear_134_6465" x1="0" y1="36.5" x2="276" y2="36.5" gradientUnits="userSpaceOnUse">
<stop stop-color="#00CCE8"/>
<stop offset="1" stop-color="#1DBE00"/>
</linearGradient>
<linearGradient id="paint1_linear_134_6465" x1="779" y1="117.378" x2="749.314" y2="268.595" gradientUnits="userSpaceOnUse">
<stop stop-color="#246987"/>
<stop offset="1" stop-color="#032B3C"/>
</linearGradient>
<linearGradient id="paint2_linear_134_6465" x1="204.218" y1="66.4747" x2="162.371" y2="74.4833" gradientUnits="userSpaceOnUse">
<stop stop-color="#00305C"/>
<stop offset="1"/>
</linearGradient>
</defs>
</svg>
