<svg width="25" height="18" viewBox="0 0 25 18" fill="none" xmlns="http://www.w3.org/2000/svg">
<path d="M2.76308 0H22.2369C24.0741 0 25 0.885 25 2.685V15.315C25 17.1 24.0741 18 22.2369 18H2.76308C0.925926 18 0 17.1 0 15.315V2.685C0 0.885 0.925926 0 2.76308 0ZM12.4927 12.9L22.3986 4.605C22.7513 4.305 23.0306 3.615 22.5897 3C22.1634 2.385 21.3845 2.37 20.8701 2.745L12.4927 8.535L4.12992 2.745C3.61552 2.37 2.83657 2.385 2.41035 3C1.96943 3.615 2.24868 4.305 2.60141 4.605L12.4927 12.9Z" fill="#F2F2F2"/>
</svg>
