<svg width="16" height="21" viewBox="0 0 16 21" fill="none" xmlns="http://www.w3.org/2000/svg">
<path d="M7.93196 7.33035L6.27776 8.8884C6.49491 9.67467 6.80043 10.431 7.18787 11.1415C7.59111 11.847 8.07621 12.4974 8.63205 13.0775L10.7743 12.3846C11.9745 11.9961 13.2846 12.3951 14.0827 13.3925L15.3029 14.9169C15.7969 15.5289 16.0445 16.3187 15.9934 17.1191C15.9422 17.9194 15.5963 18.6675 15.0288 19.2047C13.0386 21.1113 9.97422 21.7559 7.67993 19.864C5.66354 18.1973 3.95743 16.1543 2.64731 13.8376C1.33431 11.5318 0.455605 8.98265 0.0589882 6.32875C-0.381066 3.34284 1.70119 0.953273 4.29751 0.138552C5.84571 -0.3486 7.49791 0.487118 8.06598 2.04517L8.73606 3.88249C9.17612 5.09197 8.86008 6.45683 7.93196 7.33035Z" fill="#F2F2F2"/>
</svg>
